<svg id="Capa_1" enable-background="new 0 0 512 512" height="512" viewBox="0 0 512 512" width="512" xmlns="http://www.w3.org/2000/svg"><g><g><g><g><g><g><ellipse cx="297.069" cy="204.861" fill="#b2f0fb" rx="39.405" ry="39.51"/></g><g><path d="m351.37 261.08v59.86c-15.81 9.67-34.4 15.25-54.3 15.25s-38.5-5.58-54.31-15.26v-59.85c0-9.23 7.48-16.71 16.71-16.71h75.2c9.22 0 16.7 7.48 16.7 16.71z" fill="#b2f0fb"/></g></g></g></g><g fill="#020288"><path d="m65.839 194.957c5.522 0 10-4.477 10-10v-77.361c0-5.523-4.478-10-10-10s-10 4.477-10 10v77.361c0 5.523 4.477 10 10 10z"/><path d="m65.839 305.766c5.522 0 10-4.478 10-10v-77.361c0-5.522-4.478-10-10-10s-10 4.478-10 10v77.361c0 5.522 4.477 10 10 10z"/><path d="m65.839 411.978c5.522 0 10-4.477 10-10v-74.808c0-5.522-4.478-10-10-10s-10 4.478-10 10v74.809c0 5.522 4.477 9.999 10 9.999z"/><path d="m435.734 0h-351.681c-15.558 0-28.214 12.656-28.214 28.213v45.936c0 5.522 4.478 10 10 10s10-4.478 10-10v-45.936c0-4.528 3.685-8.213 8.214-8.213h50.767v472h-50.767c-4.529 0-8.214-3.685-8.214-8.214v-49.382c0-5.522-4.478-10-10-10s-10 4.478-10 10v49.382c0 15.558 12.656 28.214 28.214 28.214h351.682c15.558 0 28.214-12.656 28.214-28.214v-455.573c-.001-15.557-12.657-28.213-28.215-28.213zm8.214 483.786c0 4.529-3.684 8.214-8.214 8.214h-280.915v-472h280.915c4.529 0 8.214 3.685 8.214 8.213z"/><path d="m297.07 117.85c-62.953 0-114.17 51.217-114.17 114.17 0 40.063 20.426 76.488 54.639 97.439 17.877 10.946 38.462 16.732 59.531 16.732 21.055 0 41.635-5.781 59.521-16.722 34.22-20.948 54.649-57.378 54.649-97.449 0-62.954-51.217-114.17-114.17-114.17zm49.082 194.56c-14.739 9.015-31.712 13.78-49.082 13.78-17.382 0-34.355-4.768-49.087-13.789-28.23-17.286-45.083-47.335-45.083-80.382 0-51.926 42.244-94.17 94.17-94.17s94.17 42.244 94.17 94.17c0 33.054-16.856 63.108-45.088 80.391z"/><path d="m401.24 376.148h-208.34c-5.522 0-10 4.478-10 10s4.478 10 10 10h208.34c5.522 0 10-4.478 10-10s-4.477-10-10-10z"/><path d="m361.24 422.872h-128.34c-5.522 0-10 4.478-10 10s4.478 10 10 10h128.34c5.522 0 10-4.478 10-10s-4.477-10-10-10z"/></g></g><g><g><path d="m48.052 68.611h55.575v48.967h-55.575z" fill="#b2f0fb"/></g><g><path d="m48.052 177.215h55.575v48.967h-55.575z" fill="#b2f0fb"/></g><g><path d="m48.052 285.818h55.575v48.967h-55.575z" fill="#b2f0fb"/></g><g><path d="m48.052 394.421h55.575v48.967h-55.575z" fill="#b2f0fb"/></g></g></g></svg>